<svg width="1080" height="1080" viewBox="0 0 1080 1080" fill="none" xmlns="http://www.w3.org/2000/svg">
<path d="M996.5 547.055C1010.65 567.785 918.819 648.024 794.295 739.141C859.975 923.095 903.488 1069.03 878.5 1057.5C849.502 1044.12 788.965 918.606 725.116 788.549C528.032 926.154 288.334 1068.58 240 1060.55C182.054 1050.93 452 55.0002 498.5 53.5002C524.181 52.6717 657.225 368.138 760.262 645.734C870.108 579.455 966.689 530.515 996.5 547.055Z" fill="url(#paint0_linear_1110_2)"/>
<path d="M349.298 899.083C321.798 884.583 472 487.5 524.5 442.5C553.144 417.948 615.491 569.206 679.487 695.642C522.006 795.65 363.835 906.748 349.298 899.083Z" fill="#BFD7FF"/>
<path d="M239.872 1061.12C326.872 1075.56 1033.87 602.564 996.372 547.619C917.872 504.064 372.872 867.381 348.872 900.064C308.372 941.662 229.872 1032.11 239.872 1061.12Z" fill="url(#paint1_linear_1110_2)"/>
<defs>
<linearGradient id="paint0_linear_1110_2" x1="712.5" y1="53" x2="225.5" y2="1061" gradientUnits="userSpaceOnUse">
<stop stop-color="#9BB1FF"/>
<stop offset="0.610322" stop-color="#5465FF"/>
</linearGradient>
<linearGradient id="paint1_linear_1110_2" x1="998" y1="544" x2="507.5" y2="859" gradientUnits="userSpaceOnUse">
<stop/>
<stop offset="0.0001" stop-color="#9BB1FF"/>
<stop offset="1" stop-color="#5465FF"/>
</linearGradient>
</defs>
</svg>
